<?xml version="1.0" encoding="UTF-8"?>
<!-- Generator: Adobe Illustrator 19.1.0, SVG Export Plug-In . SVG Version: 6.00 Build 0)  -->
<svg version="1.1" id="Layer_1" xmlns="http://www.w3.org/2000/svg" xmlns:xlink="http://www.w3.org/1999/xlink" x="0px" y="0px" viewBox="0 0 500 400" style="enable-background:new 0 0 500 400;" xml:space="preserve">
<style type="text/css">
	.st0{fill:#157CC1;}
	.st1{fill:#C1B8AF;}
	.st2{fill:#A79C94;}
	.st3{font-family:'Times-Bold';}
	.st4{font-size:26.553px;}
</style>
<path class="st0" d="M119.7,349.8c-0.1,0-0.2,0.2-0.2,0.4v12.4c0,1,0,1.8,0,2.5c0,2.8,0.2,3.6,2.1,3.6c0.2,0,0.3,0,0.6,0  c0.6,0,0.9,0.2,0.9,0.5c0,0.4-0.4,0.6-1.3,0.6c-0.9,0-2-0.2-3.3-0.2c-1.1,0-2.2,0.2-3,0.2c-0.8,0-1.2-0.2-1.2-0.6  c0-0.4,0.3-0.5,0.9-0.5c0.1,0,0.2,0,0.4,0c2,0,2.1-1,2.1-4.1c0-0.6,0-1.3,0-2v-13.8c0-1.3-0.1-1.6-1.1-1.8c-1.3-0.2-2,0-2-0.6  c0-0.3,0.2-0.5,0.7-0.5h5.9c0.2,0,0.3,0,0.4,0c0.2,0,0.4,0,0.7,0.4l12.7,16.6c0,0,0.1,0,0.1,0c0.1,0,0.2-0.2,0.2-0.4V352  c0-0.5,0-1,0-1.5c0-1.1,0-2-0.2-2.6c-0.2-0.8-1.1-1-2.6-1c-0.5,0-0.8-0.2-0.8-0.5c0-0.3,0.4-0.6,1.2-0.6c1,0,2.1,0.1,3.3,0.1  c1.3,0,2.2-0.2,2.9-0.2c0.7,0,1.1,0.3,1.1,0.6c0,0.4-0.2,0.5-0.6,0.5c-0.2,0-0.3,0-0.6,0c-1.8,0-1.9,1.1-1.9,3.8c0,0.7,0,1.4,0,2.3  v16.8c0,0.5-0.3,1-0.8,1c-0.3,0-0.5-0.2-0.8-0.6l-15.7-20.4C119.8,349.8,119.8,349.8,119.7,349.8z"/>
<path class="st0" d="M143.5,354.3c-1-0.4-1.8,0-1.8-0.8c0-0.4,0.3-0.6,0.8-0.6c0.7,0,1.9,0.3,3.4,0.3c0.8,0,1.3-0.1,1.7-0.1  c0.6,0,0.7,0.2,0.7,0.6v10.1c0,2.7,1.5,4.4,4,4.4c2.6,0,4.1-1.4,4.1-4v-8.3c0-0.9-0.2-1.3-0.9-1.6c-1-0.4-1.8,0-1.8-0.8  c0-0.4,0.3-0.6,0.8-0.6c0.6,0,1.7,0.3,3.4,0.3c0.8,0,1.4-0.1,1.7-0.1c0.6,0,0.7,0.2,0.7,0.6v12.8c0,1,0.1,1.4,0.8,1.7  c0.6,0.2,1.4,0,1.4,0.6c0,0.5-0.6,0.6-1.8,1c-2.1,0.6-3.3,0.8-3.5,0.8c-0.4,0-0.6-0.3-0.6-0.8v-1.6c0-0.3-0.1-0.5-0.2-0.5  c0,0-0.2,0.1-0.3,0.3l-0.5,0.5c-1.3,1.3-3.1,2-5,2c-3.8,0-6.2-2.3-6.2-5.7v-8.8C144.4,355,144.2,354.5,143.5,354.3z"/>
<path class="st0" d="M171.2,354.9c0.1,0,0.3-0.1,0.5-0.3l1-0.8c1-1,2.1-1.4,3.2-1.4c1.8,0,3.1,1.2,3.1,2.7c0,1.1-1,1.9-2.2,1.9  c-1.9,0-2.7-1.8-3.7-1.8c-1.2,0-1.8,1.2-1.8,3.6v8.3c0,1,0.3,1.3,1.2,1.6c1.4,0.4,2.2,0.1,2.2,0.9c0,0.3-0.3,0.6-1,0.6  c-1.4,0-2.9-0.3-4.5-0.3c-1.7,0-3,0.3-3.9,0.3c-0.5,0-0.8-0.2-0.8-0.6c0-0.7,0.7-0.4,1.8-0.8c0.9-0.3,1-0.7,1-1.6v-8.7  c0-0.1,0-0.2,0-0.3c0-1,0-1.4-0.7-1.6c-0.6-0.2-1.3,0-1.3-0.6c0-0.6,0.9-0.6,2.3-1.4c1.8-0.9,2.6-1.9,3-1.9c0.3,0,0.5,0.3,0.5,0.8  v1.5C171.1,354.8,171.1,354.9,171.2,354.9z"/>
<path class="st0" d="M180.8,364.4c0.8,0,0.6,1,1.3,2.4c1,1.8,2.2,2.7,3.9,2.7c2.3,0,3.6-1.2,3.6-3.1c0-1.9-1.6-2.7-4.5-4  c-3.2-1.4-4.8-2.4-4.8-4.9c0-3,2.6-5.1,6.7-5.1c2.4,0,4,0.5,4.6,0.8c0.3,0.2,0.4,0.6,0.4,1.2c0,1.7-0.1,2.4-0.7,2.4  c-0.7,0-0.6-0.9-1.4-1.9c-0.8-1.1-1.8-1.6-3.1-1.6c-1.9,0-3.1,1-3.1,2.2c0,1.6,1.8,2.2,4.8,3.5c3,1.3,4.5,2.9,4.5,5.3  c0,3.7-2.9,6.1-7.7,6.1c-2.3,0-4.2-0.6-4.9-1.1c-0.3-0.2-0.3-0.6-0.3-1.2c0-0.3,0-0.8,0-1.3C180.1,365.2,180.1,364.4,180.8,364.4z"/>
<path class="st0" d="M206.4,368.3c3.5,0,5.1-2.2,5.4-2.2c0.3,0,0.4,0.1,0.4,0.4c0,0.4-0.4,1-1.2,1.7c-1.7,1.5-4.1,2.4-6.9,2.4  c-5.3,0-8.7-3.6-8.7-9.1c0-5.4,3.7-9.1,9.2-9.1c4.7,0,7.7,2.7,7.7,5.9c0,0.7-0.5,0.8-1.6,0.8h-10.5c-0.5,0-0.5,0.1-0.5,0.6v0.9  C199.7,365.2,202.3,368.3,206.4,368.3z M208.1,355.9c0-1.4-1.4-2.7-3.4-2.7c-2.2,0-4,1.6-4.5,3.6l-0.2,0.6c0,0,0,0.1,0,0.1  c0,0.2,0.2,0.3,0.6,0.3h3.1C206.7,357.9,208.1,357.4,208.1,355.9z"/>
<path class="st0" d="M221,354.9c0.1,0,0.3-0.1,0.5-0.3l1-0.8c1-1,2.1-1.4,3.2-1.4c1.8,0,3.1,1.2,3.1,2.7c0,1.1-1,1.9-2.2,1.9  c-1.9,0-2.7-1.8-3.7-1.8c-1.2,0-1.8,1.2-1.8,3.6v8.3c0,1,0.3,1.3,1.2,1.6c1.4,0.4,2.2,0.1,2.2,0.9c0,0.3-0.3,0.6-1,0.6  c-1.4,0-2.9-0.3-4.5-0.3c-1.7,0-3,0.3-3.9,0.3c-0.5,0-0.8-0.2-0.8-0.6c0-0.7,0.7-0.4,1.8-0.8c0.9-0.3,1-0.7,1-1.6v-8.7  c0-0.1,0-0.2,0-0.3c0-1,0-1.4-0.7-1.6c-0.6-0.2-1.3,0-1.3-0.6c0-0.6,0.9-0.6,2.3-1.4c1.8-0.9,2.6-1.9,3-1.9c0.3,0,0.5,0.3,0.5,0.8  v1.5C220.8,354.8,220.9,354.9,221,354.9z"/>
<path class="st0" d="M242.3,355.3c0-0.6-0.4-0.8-1.1-1c-1.1-0.3-1.6-0.3-1.6-0.8c0-0.4,0.2-0.5,0.5-0.5c0.3,0,1.4,0.2,3.5,0.2  c1.5,0,2.6-0.1,3-0.1c0.3,0,0.4,0.1,0.4,0.5c0,0.5-0.4,0.5-1.3,0.7c-0.8,0.2-1.4,0.8-1.9,1.9l-3.9,8.4c-3.1,6.7-4.5,10.8-4.9,12  c-0.6,1.5-1.1,1.8-2.9,1.8c-1.2,0-1.8-0.5-1.8-1.4c0-1.6,0.5-2.1,2.1-2.1c0.1,0,0.1,0,0.2,0c1,0,1.5,0,2.1-1.3l1-2.2  c0.2-0.5,0.3-0.9,0.3-1.2c0-0.3-0.2-1.2-0.7-2.5l-3.9-9.6c-0.8-1.9-1.4-3.1-2.2-3.5c-1-0.5-1.9-0.3-1.9-1c0-0.3,0.2-0.5,0.6-0.5  c1,0,2.5,0.2,4.4,0.2c2.6,0,3.9-0.2,4.2-0.2c0.4,0,0.5,0.2,0.5,0.5c0,0.3-0.2,0.5-0.6,0.6c-0.9,0.2-1.6,0.2-1.6,0.8  c0,0.4,0.2,1.3,0.6,2.3l2.7,6.8c0.1,0.3,0.3,0.5,0.4,0.5c0.1,0,0.2-0.2,0.4-0.5l2.9-6.5C242.1,356.5,242.3,355.5,242.3,355.3z"/>
<path class="st0" d="M265.3,370.5c-3,0-5.3-0.8-6.4-1.6c-0.6-0.5-0.7-1-0.7-2c0-0.5,0-0.9,0-1.3c0-2.1,0-3,0.8-3  c0.8,0,0.6,1.3,1.1,2.7c1,2.6,3.2,4.1,5.7,4.1c3,0,5.2-2,5.2-4.5c0-2.1-1.5-3.8-4.5-5.3c-2.2-1.1-4.3-1.7-5.6-2.9  c-1.5-1.3-2.2-2.9-2.2-4.8c0-4,3.2-6.7,8.5-6.7c2.7,0,4.8,0.7,5.4,1.1c0.3,0.3,0.4,1.6,0.4,4.2c0,0.6-0.2,0.8-0.6,0.8  c-0.6,0-0.8-0.8-1.4-2c-1.1-2.1-2-3.1-4.2-3.1c-2.9,0-4.6,1.6-4.6,3.9c0,2.3,1.7,3.2,4.9,4.6c5,2.1,7.5,4.2,7.5,8.1  C274.5,367.2,270.8,370.5,265.3,370.5z"/>
<path class="st0" d="M286.3,370.5c-5.2,0-8.8-3.6-8.8-8.9c0-5.5,3.9-9.2,9.7-9.2c3.3,0,5.5,1.1,5.5,2.4c0,1.9-0.6,3-1.3,3  c-0.6,0-1-0.7-1.7-1.9c-0.9-1.6-1.6-2.5-3-2.5c-2.5,0-4.9,3-4.9,7.4c0,4.7,2.7,7.6,6.5,7.6c2.5,0,3.8-1.6,4.2-1.6  c0.3,0,0.5,0.3,0.5,0.6C292.9,368.2,290.2,370.5,286.3,370.5z"/>
<path class="st0" d="M302,368.6c0.8,0.3,1.7,0,1.7,0.8c0,0.4-0.3,0.6-0.8,0.6c-0.6,0-1.8-0.2-3.8-0.2c-2,0-3.4,0.3-3.9,0.3  c-0.5,0-0.8-0.2-0.8-0.6c0-0.7,0.7-0.4,1.7-0.7c1-0.3,1-0.7,1-1.7v-19c0-1,0-1.2-0.7-1.5c-0.8-0.3-1.4-0.3-1.4-0.7  c0-0.6,0.8-0.6,2.2-1c2.1-0.6,3.2-1.4,3.5-1.4c0.4,0,0.6,0.2,0.6,0.7c0,0.7-0.2,1.6-0.2,2.6v8c0,0.3,0,0.5,0.2,0.5  c0.1,0,0.2-0.1,0.3-0.2l0.5-0.5c1.2-1.3,2.9-2.1,4.7-2.1c3.8,0,6.1,2.2,6.1,6v8.5c0,0.9,0.1,1.3,0.8,1.6c0.8,0.4,1.4,0.1,1.4,0.9  c0,0.3-0.3,0.5-0.7,0.5c-0.7,0-1.8-0.2-3.5-0.2c-1.7,0-3.1,0.3-3.9,0.3c-0.5,0-0.8-0.2-0.8-0.6c0-0.7,0.8-0.4,1.7-0.8  c0.9-0.3,1-0.7,1-1.6v-6.3c0-4.1-0.8-6-3.8-6c-2.4,0-3.9,1.4-3.9,4v8.3C301.1,367.8,301.3,368.3,302,368.6z"/>
<path class="st0" d="M326.6,370.5c-5.8,0-9.6-3.8-9.6-9.1c0-5.4,3.9-9.1,10.1-9.1c6,0,9.7,3.7,9.7,9.1  C336.9,366.8,333,370.5,326.6,370.5z M327,353.4c-3.5,0-5.7,2.7-5.7,7.5c0,5.3,2.4,8.6,5.7,8.6c3.5,0,5.6-2.8,5.6-7.4  C332.7,356.7,330.3,353.4,327,353.4z"/>
<path class="st0" d="M348.7,370.5c-5.8,0-9.6-3.8-9.6-9.1c0-5.4,3.9-9.1,10.1-9.1c6,0,9.7,3.7,9.7,9.1  C359,366.8,355.1,370.5,348.7,370.5z M349.1,353.4c-3.5,0-5.7,2.7-5.7,7.5c0,5.3,2.4,8.6,5.7,8.6c3.5,0,5.6-2.8,5.6-7.4  C354.8,356.7,352.4,353.4,349.1,353.4z"/>
<path class="st0" d="M362.9,346.4c-0.7-0.3-1.4-0.3-1.4-0.7c0-0.6,0.8-0.6,2.1-1c2.2-0.6,3.2-1.4,3.5-1.4c0.5,0,0.6,0.2,0.6,0.7  c0,0.6-0.1,1.5-0.1,2.6v20.2c0,0.9,0.2,1.4,1.1,1.6c1,0.3,2,0,2,0.8c0,0.4-0.3,0.6-0.9,0.6c-1,0-2.4-0.3-4.1-0.3  c-1.9,0-3.2,0.3-3.9,0.3c-0.5,0-0.8-0.2-0.8-0.6c0-0.7,0.8-0.5,1.7-0.8c1-0.3,1-0.6,1-1.6v-19C363.5,347.1,363.5,346.7,362.9,346.4z  "/>
<path class="st0" d="M373,364.4c0.8,0,0.6,1,1.3,2.4c1,1.8,2.2,2.7,3.9,2.7c2.3,0,3.6-1.2,3.6-3.1c0-1.9-1.6-2.7-4.5-4  c-3.2-1.4-4.8-2.4-4.8-4.9c0-3,2.6-5.1,6.7-5.1c2.4,0,4,0.5,4.6,0.8c0.3,0.2,0.4,0.6,0.4,1.2c0,1.7-0.1,2.4-0.7,2.4  c-0.7,0-0.6-0.9-1.4-1.9c-0.8-1.1-1.8-1.6-3.1-1.6c-1.9,0-3.1,1-3.1,2.2c0,1.6,1.8,2.2,4.8,3.5c3,1.3,4.5,2.9,4.5,5.3  c0,3.7-2.9,6.1-7.7,6.1c-2.3,0-4.2-0.6-4.9-1.1c-0.3-0.2-0.3-0.6-0.3-1.2c0-0.3,0-0.8,0-1.3C372.3,365.2,372.3,364.4,373,364.4z"/>
<path class="st1" d="M247.1,142.1C247.2,142.4,247.2,142.4,247.1,142.1C247.1,141.8,247.1,141.8,247.1,142.1z"/>
<path class="st2" d="M326.6,189c0,0-1.5,2.6-4.7,3.2c0.1-0.1,0.1-0.2,0.2-0.2c1.5-0.7,4.6-2.9,4.4-9.1c0,0-1.7,3.6-1.7,3.7  c-1,1.3,2.2-2.6-0.7-8.1c0,0,0.6,1.8,0.4,3.5c-0.2-1.1-0.6-2.2-1.1-3.1c0.5-1.3,0.7-2.5,0.7-3.6c0.1-0.5,0.2-0.9,0.3-1.4l0.6,1  c0.7-3,0.7-6,0.3-8.5c0.1-1.5,0.1-3,0-4.5l1,1.5c-0.3-5.4-1.4-9.5-2.6-12.6c-0.4-1.7-0.9-3.4-1.5-5.1l0.9,0.7  c-1.1-3.7-2.8-6.8-4.5-9.4c-1-2-2.1-4-3.3-5.9l1.5,0.9c-2.4-5.7-7-9.7-10.6-12.2c-0.1-0.1-0.2-0.2-0.3-0.3l5.7,3.1  c-3.6-3.3-7.1-5.5-10-6.9c-0.7-0.6-1.5-1.1-2.2-1.7l2.2,0.4c-4.7-3.2-8.8-4.9-11.7-5.8c-0.8-0.4-1.6-0.7-2.5-1  c1.6-0.1,3.8-0.2,3.3-0.3c-0.4-0.1-4.2-0.7-7.4-1.1c-1.2-0.4-2.5-0.8-3.7-1.1l1.8-0.2l-8.9-1.6c-0.5-0.1-0.9-0.2-1.4-0.3  c2.4-0.4,5.8,0.3,5.8,0.3c-4.6-2-8.9-1.6-11.2-1.2c-0.3,0-0.6-0.1-0.9-0.1c1.5-0.4,4.2-0.8,4.2-0.8c-6.6-2-15.3-0.2-16.9,0.2  c-0.1,0-0.2,0-0.3,0c1.6-0.9,2.9-1.6,2.8-1.6c-4.5-0.1-7.6,1-9.5,2.1c-0.3,0-0.6,0.1-0.9,0.1l0.9-0.9c-2.8,0.1-4.7,1-5.9,1.9  c-0.2,0-0.3,0.1-0.5,0.1l0.6-0.8c-1.2,0.5-2.5,1.1-3.5,1.6c-0.2-0.3-0.9-1.7-1.2-4.1c-1.2-12.6-7.5-8-2.2-21  c17.1-42.1,3-49.5,3-49.5c-14.5-6.1-13.9,15.3-16.4,46.5c-0.2-8.4-0.5-19.4-0.7-25.7c-0.2-10.9-4.5-17.3-7.4-17.3  c-3,0-2.5,8.2-2.5,8.2c-2.5,6.1,3.4,34.6,4.4,39.4c-1.4-0.1-3.7,0-7.3,0.5l2.8,0.4c-0.5,0.1-1,0.1-1.6,0.2l-4.5,0l3.1,0.3  c-0.3,0.1-0.6,0.1-0.9,0.2l-3.9,0.2l1.8,0.4c-0.6,0.2-1.2,0.4-1.8,0.6l-1.9,0.3l0.7,0.2c-0.9,0.4-1.8,0.9-2.7,1.4l-3.6,0.7l1.1,0.5  l-2.7,1.6h1.3c-0.1,0.1-0.2,0.2-0.2,0.2c-1.1,0.7-2.5,1.8-3.1,2.8l1-0.5c-0.3,0.3-0.5,0.6-0.7,1c-3,4.2-5.6,9.6-11.5,15  c-1.6,1.4-4,4.9-4.1,6.1c2-0.1,6.1-1,6.1-1c0.2,1.1-5.9,2.7-5.9,2.7c-0.3,0.2-1.4,0.2-0.7,5.1c0.2,1.4,2.2,7.5,9.2,10.5  c2.7,1.2,5.3,2,9.7,3.5c2.2,0.7,1.7,1.6,2,5.4c0,0.3,0.1,0.6,0.1,1c0.1,1,0.2,2.2,0.2,2.7c0.1,1,0.5,5,0.5,5l0.3-2.4l1.1,4.8  l0.4-2.3c0,0,0,0.1,0,0.1c0.1,1.7,0.4,10.5,1,11.5l0.3-2.9c0,0,2.8,11.9,2.9,10.3c0-0.2,0-3.1,0-3.1s1.4,5.2,3.9,8.3l-0.4-2.4  c0,0,3.8,6.3,5.4,7.7l-0.7-2.1c0,0,3.1,4.3,4.7,5.5l-0.3-1.5l3.4,3.9l-0.1-1.3l5.9,4.6l-0.3,2l0.4-0.6c0,0.7,0,1.4-0.1,2.2l-0.3,1.4  l0.3-0.1c-0.1,1.7-0.1,3.2-0.3,3.2c-2.1,0-8,2.2-8,8c0,0-0.3,1.2,1.3,1.4c1.9,0.1,16,0.2,16.2-0.1l9.5-10.5c1.4,0.5,3.6,1.1,6.4,1.6  l-1.7-0.7c0.6,0.1,1.1,0.1,1.7,0.2c1.7,0.4,3.6,0.8,5.2,0.8c0,0-1.4-0.2-2.4-0.6c0.5,0,0.9,0,1.4,0c0.3,0,0.6,0,0.9,0  c1.6,1.2,1.8,1.1,1.8,1.1c-9,3.7-4.4,9.3-4.4,9.3l32,0c4.8,0,9.1-0.5,13-1.4c-0.8,0.5-1.5,0.9-1.5,0.9c0.9-0.1,2.1-0.6,3.2-1.3  c1.9-0.5,3.8-1.2,5.5-1.9c-0.4,0.6-0.7,1-0.7,1c0.8-0.3,1.8-1,2.7-1.9c1.2-0.6,2.3-1.2,3.4-1.9c-0.5,0.8-1,1.4-1,1.4  c1.1-0.4,2-1.6,2.4-2.3c1.1,0.3,2.2,0.4,3.4,0.4c2.5,0.1,6-0.4,9.6-3.1c0,0-2.1,1.1-4.3,1.2c0.2-0.1,0.4-0.3,0.6-0.4  C321.5,194.4,325.4,193,326.6,189z M222.8,185.3l0.2-0.3l-0.1,0.5L222.8,185.3z"/>
<g>
	<g>
		<path class="st0" d="M488.1,263.9c0,4.1-3.3,7.4-7.5,7.4c-4.2,0-7.6-3.3-7.6-7.4c0-4.1,3.4-7.3,7.6-7.3    C484.7,256.5,488.1,259.8,488.1,263.9z M474.8,263.9c0,3.3,2.5,5.9,5.7,5.9c3.2,0,5.6-2.6,5.6-5.8c0-3.3-2.4-5.9-5.7-5.9    C477.3,258,474.8,260.7,474.8,263.9z M479.4,267.7h-1.7v-7.3c0.7-0.1,1.6-0.2,2.8-0.2c1.4,0,2,0.2,2.5,0.6    c0.4,0.3,0.8,0.9,0.8,1.6c0,0.9-0.7,1.5-1.5,1.7v0.1c0.7,0.2,1.1,0.8,1.3,1.8c0.2,1.1,0.4,1.5,0.5,1.8h-1.8    c-0.2-0.3-0.4-0.9-0.6-1.8c-0.1-0.8-0.6-1.1-1.5-1.1h-0.8V267.7z M479.4,263.6h0.8c0.9,0,1.7-0.3,1.7-1.1c0-0.7-0.5-1.1-1.6-1.1    c-0.4,0-0.8,0-0.9,0.1V263.6z"/>
	</g>
</g>
<g>
	<path class="st0" d="M29.5,269.6v12.6c0,4.7,0.1,7.8,0.3,9.3c0.2,1.5,0.8,2.6,1.8,3.3c1,0.7,2.8,1.1,5.5,1.1h2v2H11.6v-2h1.6   c2.6,0,4.4-0.3,5.3-1c1-0.6,1.6-1.7,1.9-3c0.3-1.4,0.4-4.6,0.4-9.6v-29.5c0-4.8-0.1-7.9-0.4-9.3c-0.3-1.4-0.9-2.4-1.8-2.9   c-0.9-0.5-2.9-0.8-5.9-0.8h-1.1v-2l7.5-0.3c6-0.2,10.7-0.3,14.1-0.3c6.2,0,11,0.5,14.3,1.5c3.4,1,6.1,2.7,8.2,5.2   c2.1,2.5,3.2,5.6,3.2,9.4c0,3.3-0.7,6.2-2.2,8.7c-1.5,2.5-3.6,4.4-6.3,5.7c-2.7,1.3-7.5,2-14.4,2H29.5z M29.5,267.4h4.3   c3.5,0,6.3-0.3,8.4-1c2.1-0.7,3.9-2.2,5.3-4.4c1.4-2.2,2.1-5,2.1-8.2c0-5-1.2-8.6-3.7-11c-2.4-2.3-6.4-3.5-11.9-3.5   c-2,0-3.5,0.1-4.6,0.2V267.4z"/>
	<path class="st0" d="M72.1,260.1v25.3c0,3.9,0.1,6.3,0.2,7.3c0.1,1,0.5,1.8,1.3,2.3c0.7,0.5,2.1,0.8,3.9,0.8h0.9v2H58.8v-2h1.5   c2.1,0,3.5-0.3,4.1-0.9c0.6-0.6,1-1.3,1.1-2.2c0.1-0.8,0.2-3.3,0.2-7.3v-11c0-4.3-0.2-6.9-0.6-7.8c-0.4-0.9-0.9-1.5-1.6-1.8   c-0.7-0.2-1.8-0.4-3.5-0.4h-1.2v-2c5.3-0.5,9.3-1.3,12.2-2.4H72.1z M63.5,241.6c0-1.3,0.5-2.4,1.4-3.3c0.9-0.9,2-1.4,3.3-1.4   c1.3,0,2.4,0.5,3.2,1.4c0.9,0.9,1.3,2,1.3,3.3c0,1.3-0.4,2.4-1.3,3.3c-0.9,0.9-2,1.4-3.2,1.4c-1.3,0-2.4-0.5-3.3-1.4   C64,244,63.5,242.9,63.5,241.6z"/>
	<path class="st0" d="M89.1,260.1h1.2c0.5,1.7,0.8,3.7,0.8,6c1.9-2,3.9-3.5,6.1-4.5c2.2-1,4.5-1.5,6.9-1.5c5,0,9.2,1.8,12.5,5.3   c3.3,3.5,5,8.2,5,14c0,5.7-1.7,10.4-5,14.2c-3.4,3.8-7.8,5.7-13.2,5.7c-2.2,0-4.4-0.5-6.5-1.4c-2.1-0.9-4-2.2-5.8-4v13.8   c0,4.2,0.1,6.8,0.2,7.7c0.2,0.9,0.6,1.6,1.4,2.1c0.8,0.5,2.2,0.7,4.3,0.7v2H78v-2h1.3c2.1,0,3.5-0.3,4.1-0.9c0.6-0.6,1-1.3,1.1-2.2   c0.1-0.8,0.2-3.3,0.2-7.3v-33c0-3.9-0.1-6.3-0.2-7.3c-0.1-1-0.5-1.8-1.3-2.3c-0.7-0.5-2.1-0.8-3.9-0.8H78v-2   C80.9,262.1,84.6,261.3,89.1,260.1z M91,291.1c1.6,1.9,3.3,3.4,5.1,4.4c1.8,1,3.7,1.5,5.7,1.5c3.3,0,6.3-1.4,8.7-4.3   c2.5-2.9,3.7-7.4,3.7-13.7c0-5.4-1.2-9.5-3.6-12.2c-2.4-2.7-5.2-4-8.6-4c-2,0-4,0.5-5.8,1.6c-1.8,1-3.6,2.6-5.2,4.7V291.1z"/>
	<path class="st0" d="M134.1,260.1h1.2c0.5,1.7,0.8,3.7,0.8,6c1.9-2,3.9-3.5,6.1-4.5c2.2-1,4.5-1.5,6.9-1.5c5,0,9.2,1.8,12.5,5.3   c3.3,3.5,5,8.2,5,14c0,5.7-1.7,10.4-5,14.2c-3.4,3.8-7.8,5.7-13.2,5.7c-2.2,0-4.4-0.5-6.5-1.4c-2.1-0.9-4-2.2-5.8-4v13.8   c0,4.2,0.1,6.8,0.2,7.7c0.2,0.9,0.6,1.6,1.4,2.1c0.8,0.5,2.2,0.7,4.3,0.7v2h-19v-2h1.3c2.1,0,3.5-0.3,4.1-0.9   c0.6-0.6,1-1.3,1.1-2.2c0.1-0.8,0.2-3.3,0.2-7.3v-33c0-3.9-0.1-6.3-0.2-7.3c-0.1-1-0.5-1.8-1.3-2.3c-0.7-0.5-2.1-0.8-3.9-0.8H123   v-2C126,262.1,129.7,261.3,134.1,260.1z M136.1,291.1c1.6,1.9,3.3,3.4,5.1,4.4c1.8,1,3.7,1.5,5.7,1.5c3.3,0,6.3-1.4,8.7-4.3   c2.5-2.9,3.7-7.4,3.7-13.7c0-5.4-1.2-9.5-3.6-12.2c-2.4-2.7-5.2-4-8.6-4c-2,0-4,0.5-5.8,1.6c-1.8,1-3.6,2.6-5.2,4.7V291.1z"/>
	<path class="st0" d="M208,291.3h1.6c-0.3,5.1-2.7,7.6-7.4,7.6c-2,0-3.6-0.5-4.8-1.6c-1.2-1.1-1.9-2.6-2.3-4.7   c-3,2.1-5.7,3.7-8.1,4.7c-2.4,1.1-4.6,1.6-6.6,1.6c-2.5,0-4.6-0.7-6.4-2.1c-1.8-1.4-2.7-3.3-2.7-5.6c0-3,1.5-5.7,4.5-8   c3-2.3,7.1-4.5,12.3-6.7l6.9-2.8v-1.8c0-2.5-0.2-4.3-0.5-5.5c-0.3-1.1-1.2-2.1-2.5-3c-1.4-0.9-3.2-1.3-5.4-1.3   c-4.4,0-6.9,1.5-7.4,4.4c-0.5,3-1.7,4.5-3.7,4.5c-1.8,0-2.7-0.9-2.7-2.6c0-1.7,1.2-3.5,3.6-5.4c2.4-1.9,6.1-2.9,11.2-2.9   c3.8,0,6.7,0.6,8.7,1.8c2.1,1.2,3.4,2.5,4.1,4c0.7,1.5,1,3.8,1,6.9v14.7c0,3.4,0.2,5.6,0.5,6.6c0.4,1,1.1,1.5,2.3,1.5   C206.3,295.6,207.5,294.2,208,291.3z M195.1,275.8l-4.8,2c-7.7,3.1-11.5,7-11.5,11.7c0,1.9,0.5,3.4,1.5,4.5c1,1.1,2.3,1.7,3.8,1.7   c1.4,0,3-0.5,4.8-1.4c1.8-0.9,3.9-2.3,6.2-4.1V275.8z"/>
	<path class="st0" d="M242.8,269.6v12.6c0,4.7,0.1,7.8,0.3,9.3c0.2,1.5,0.8,2.6,1.8,3.3c1,0.7,2.8,1.1,5.5,1.1h2v2h-27.5v-2h1.6   c2.6,0,4.4-0.3,5.3-1c1-0.6,1.6-1.7,1.9-3c0.3-1.4,0.4-4.6,0.4-9.6v-29.5c0-4.8-0.1-7.9-0.4-9.3c-0.3-1.4-0.9-2.4-1.8-2.9   c-0.9-0.5-2.9-0.8-5.9-0.8h-1.1v-2l7.5-0.3c6-0.2,10.7-0.3,14.1-0.3c6.2,0,11,0.5,14.3,1.5c3.4,1,6.1,2.7,8.3,5.2   c2.1,2.5,3.2,5.6,3.2,9.4c0,3.3-0.7,6.2-2.2,8.7c-1.5,2.5-3.6,4.4-6.3,5.7c-2.7,1.3-7.5,2-14.4,2H242.8z M242.8,267.4h4.3   c3.5,0,6.3-0.3,8.4-1c2.1-0.7,3.9-2.2,5.3-4.4c1.4-2.2,2.1-5,2.1-8.2c0-5-1.2-8.6-3.7-11c-2.4-2.3-6.4-3.5-11.9-3.5   c-2,0-3.5,0.1-4.6,0.2V267.4z"/>
	<path class="st0" d="M269.9,279.7c0-5.6,1.9-10.2,5.6-13.9c3.7-3.7,8.3-5.6,13.7-5.6c5.5,0,10.1,1.9,13.8,5.6   c3.7,3.8,5.6,8.4,5.6,13.9c0,6.1-1.9,10.9-5.7,14.4c-3.8,3.5-8.3,5.3-13.7,5.3c-5.3,0-9.9-1.8-13.7-5.3   C271.8,290.5,269.9,285.7,269.9,279.7z M277.3,279.9c0,6.4,1,11,3.1,13.5c2.1,2.6,5,3.9,8.8,3.9c3.9,0,6.8-1.3,8.9-3.9   c2.1-2.6,3.1-7.1,3.1-13.5c0-6.4-1-10.9-3.1-13.7c-2-2.7-5-4.1-8.9-4.1c-3.9,0-6.8,1.4-8.9,4.1   C278.3,268.9,277.3,273.5,277.3,279.9z"/>
	<path class="st0" d="M320.9,260.1h1.2c0.5,1.7,0.8,3.7,0.8,6c1.9-2,3.9-3.5,6.1-4.5c2.2-1,4.5-1.5,6.9-1.5c5,0,9.2,1.8,12.5,5.3   c3.3,3.5,5,8.2,5,14c0,5.7-1.7,10.4-5,14.2c-3.4,3.8-7.8,5.7-13.2,5.7c-2.2,0-4.4-0.5-6.5-1.4c-2.1-0.9-4-2.2-5.8-4v13.8   c0,4.2,0.1,6.8,0.2,7.7c0.2,0.9,0.6,1.6,1.4,2.1c0.8,0.5,2.2,0.7,4.3,0.7v2h-19v-2h1.3c2.1,0,3.5-0.3,4.1-0.9   c0.6-0.6,1-1.3,1.1-2.2c0.1-0.8,0.2-3.3,0.2-7.3v-33c0-3.9-0.1-6.3-0.2-7.3c-0.1-1-0.5-1.8-1.3-2.3c-0.7-0.5-2.1-0.8-3.9-0.8h-1.3   v-2C312.7,262.1,316.4,261.3,320.9,260.1z M322.8,291.1c1.6,1.9,3.3,3.4,5.1,4.4c1.8,1,3.7,1.5,5.7,1.5c3.3,0,6.2-1.4,8.7-4.3   c2.5-2.9,3.7-7.4,3.7-13.7c0-5.4-1.2-9.5-3.6-12.2c-2.4-2.7-5.2-4-8.6-4c-2,0-4,0.5-5.8,1.6c-1.8,1-3.6,2.6-5.2,4.7V291.1z"/>
	<path class="st0" d="M382.1,260.1v25.3c0,3.9,0.1,6.3,0.2,7.3c0.1,1,0.5,1.8,1.3,2.3c0.7,0.5,2.1,0.8,3.9,0.8h0.9v2h-19.6v-2h1.5   c2.1,0,3.5-0.3,4.1-0.9c0.6-0.6,1-1.3,1.1-2.2c0.1-0.8,0.2-3.3,0.2-7.3v-11c0-4.3-0.2-6.9-0.6-7.8c-0.4-0.9-0.9-1.5-1.6-1.8   c-0.7-0.2-1.8-0.4-3.5-0.4h-1.2v-2c5.3-0.5,9.3-1.3,12.2-2.4H382.1z M373.5,241.6c0-1.3,0.5-2.4,1.4-3.3c0.9-0.9,2-1.4,3.3-1.4   c1.3,0,2.3,0.5,3.2,1.4c0.9,0.9,1.3,2,1.3,3.3c0,1.3-0.4,2.4-1.3,3.3c-0.9,0.9-2,1.4-3.2,1.4c-1.3,0-2.4-0.5-3.3-1.4   C374,244,373.5,242.9,373.5,241.6z"/>
	<path class="st0" d="M400.5,260.1h1.2c0.7,1.8,1.1,4.3,1.2,7.5c2.1-2.5,4.4-4.4,6.7-5.6c2.3-1.2,4.8-1.9,7.3-1.9   c2.9,0,5.3,0.6,7.1,1.8c1.8,1.2,3,2.7,3.6,4.5c0.5,1.8,0.8,4.3,0.8,7.7v11.4c0,4.2,0.1,6.8,0.2,7.7c0.1,0.9,0.6,1.6,1.4,2.1   c0.8,0.5,2.2,0.7,4.3,0.7v2h-18.5v-2h0.8c2.1,0,3.5-0.3,4.2-0.9c0.7-0.6,1-1.3,1.1-2.2c0.1-0.8,0.1-3.3,0.1-7.3v-11.7   c0-2.9-0.1-4.9-0.4-6.1c-0.3-1.2-1-2.3-2.3-3.3c-1.2-0.9-2.8-1.4-4.7-1.4c-2.2,0-4.2,0.6-6.2,1.9c-2,1.3-3.8,3.2-5.6,5.8v14.8   c0,4.2,0.1,6.8,0.2,7.7c0.2,0.9,0.6,1.6,1.4,2.1c0.8,0.5,2.2,0.7,4.4,0.7v2h-18.4v-2c2,0,3.5-0.2,4.3-0.6c0.8-0.4,1.3-1,1.5-1.9   c0.2-0.8,0.3-3.5,0.3-7.9v-10.8c0-4.2-0.1-6.8-0.2-7.7c-0.2-0.9-0.6-1.6-1.4-2c-0.8-0.5-2.2-0.7-4.4-0.7v-2   C393.7,261.8,397,261.1,400.5,260.1z"/>
	<path class="st0" d="M437.6,299.1v-11.9h1.7c2,6.9,5.6,10.3,10.8,10.3c2.2,0,3.9-0.7,5-2c1.1-1.4,1.7-2.9,1.7-4.5   c0-1.9-0.6-3.4-1.8-4.7c-1.2-1.2-3.6-2.7-7-4.4c-3.7-1.8-6.3-3.6-7.9-5.3c-1.6-1.7-2.4-3.8-2.4-6.3c0-2.4,0.9-4.7,2.6-6.9   c1.7-2.2,4.1-3.3,7.2-3.3c3.2,0,5.8,1.3,7.8,3.9c0.4-0.4,1-1.5,1.7-3.2h1.6V272H457c-0.6-2.7-1.7-5-3.4-6.9c-1.7-1.9-3.7-2.9-6-2.9   c-1.8,0-3.2,0.5-4.3,1.6c-1.1,1.1-1.6,2.4-1.6,3.8c0,1.6,0.6,3,1.8,4.1c1.2,1.2,3.4,2.5,6.8,4c5,2.3,8.1,4.5,9.2,6.7   c1.1,2.2,1.7,4.3,1.7,6.3c0,3.2-1,5.7-3.1,7.7c-2.1,2-4.7,3-7.9,3c-3.3,0-6.3-1.4-8.9-4.1c-0.8,0.9-1.4,2.2-2,3.8H437.6z"/>
	<text transform="matrix(1 0 0 1 359.7559 283.8701)" class="st0 st3 st4">-</text>
</g>
</svg>